<?xml version="1.0" standalone="no"?><!-- Generator: Gravit.io --><svg xmlns="http://www.w3.org/2000/svg" xmlns:xlink="http://www.w3.org/1999/xlink" style="isolation:isolate" viewBox="0 0 1024 768" width="1024" height="768"><defs><clipPath id="_clipPath_RNIo2IPfpfaHa7dsmBYvWJKbpvi5P0pO"><rect width="1024" height="768"/></clipPath></defs><g clip-path="url(#_clipPath_RNIo2IPfpfaHa7dsmBYvWJKbpvi5P0pO)"><g><rect x="0" y="0" width="1024" height="50" transform="matrix(1,0,0,1,0,0)" fill="rgb(255,255,255)"/></g><g><path d=" M 21.53 20.625 L 17.156 25 L 21.53 29.375 L 22.844 28.061 L 19.784 25 L 22.844 21.939 L 21.53 20.625 Z " fill="rgb(49,56,64)"/><circle vector-effect="non-scaling-stroke" cx="20" cy="25" r="10" fill="none" stroke-width="1" stroke="rgb(49,56,64)" stroke-linejoin="miter" stroke-linecap="square" stroke-miterlimit="3"/></g><g><path d=" M 48.47 29.375 L 52.844 25 L 48.47 20.625 L 47.156 21.939 L 50.216 25 L 47.156 28.061 L 48.47 29.375 Z " fill="rgb(49,56,64)"/><circle vector-effect="non-scaling-stroke" cx="49.99999999999999" cy="25" r="10" fill="none" stroke-width="1" stroke="rgb(49,56,64)" stroke-linejoin="miter" stroke-linecap="square" stroke-miterlimit="3"/></g><path d=" M 89.623 27.694 C 88.453 31.908 84.585 35 80 35 C 74.481 35 70 30.519 70 25 C 70 19.481 74.481 15 80 15 C 85.519 15 90 19.481 90 25 C 90 25.934 89.872 26.839 89.623 27.694" fill="none" vector-effect="non-scaling-stroke" stroke-width="1" stroke="rgb(49,56,64)" stroke-linejoin="miter" stroke-linecap="square" stroke-miterlimit="3"/><path d=" M 80 20.416 C 78.047 20.416 76.415 21.623 75.75 23.329 L 76.454 23.615 C 77.011 22.189 78.361 21.18 80 21.18 C 81.239 21.18 82.343 21.787 83.032 22.708 L 81.528 22.708 L 81.528 23.472 L 84.202 23.472 L 84.202 20.798 L 83.438 20.798 L 83.438 21.98 C 82.572 20.986 81.318 20.416 80 20.416 Z  M 83.546 26.385 C 82.989 27.811 81.639 28.82 80 28.82 C 78.748 28.82 77.648 28.204 76.956 27.292 L 78.472 27.292 L 78.472 26.528 L 75.798 26.528 L 75.798 29.202 L 76.562 29.202 L 76.562 28.02 C 77.398 28.968 78.623 29.584 80 29.584 C 81.953 29.584 83.585 28.377 84.25 26.671 L 83.546 26.385 Z " fill="rgb(49,56,64)"/><path d="M 110.302 14.989 L 988.698 14.989 C 994.384 14.989 999 19.475 999 25 L 999 25 C 999 30.525 994.384 35.011 988.698 35.011 L 110.302 35.011 C 104.616 35.011 100 30.525 100 25 L 100 25 C 100 19.475 104.616 14.989 110.302 14.989 Z" style="stroke:none;fill:#E8E8E8;stroke-miterlimit:10;"/><path d=" M 1011 16 C 1009.895 16 1009 16.895 1009 18 C 1009 19.105 1009.895 20 1011 20 C 1012.105 20 1013 19.105 1013 18 C 1013 16.895 1012.105 16 1011 16 Z  M 1011 23 C 1009.895 23 1009 23.895 1009 25 C 1009 26.105 1009.895 27 1011 27 C 1012.105 27 1013 26.105 1013 25 C 1013 23.895 1012.105 23 1011 23 Z  M 1011 30 C 1009.895 30 1009 30.895 1009 32 C 1009 33.105 1009.895 34 1011 34 C 1012.105 34 1013 33.105 1013 32 C 1013 30.895 1012.105 30 1011 30 Z " fill="rgb(117,116,134)"/><path d=" M 113.563 20.013 C 112.123 20.013 110.95 21.185 110.95 22.625 L 110.95 24.013 C 110.363 24.649 110 25.494 110 26.425 C 110 28.39 111.598 29.988 113.563 29.988 C 115.527 29.988 117.125 28.39 117.125 26.425 C 117.125 25.494 116.762 24.649 116.175 24.013 L 116.175 22.625 C 116.175 21.185 115.002 20.013 113.563 20.013 Z  M 113.563 20.488 C 114.746 20.488 115.7 21.441 115.7 22.625 L 115.7 23.582 C 115.103 23.133 114.365 22.863 113.563 22.863 C 112.76 22.863 112.022 23.133 111.425 23.582 L 111.425 22.625 C 111.425 21.441 112.379 20.488 113.563 20.488 Z  M 113.563 23.338 C 115.27 23.338 116.65 24.717 116.65 26.425 C 116.65 28.133 115.27 29.513 113.563 29.513 C 111.855 29.513 110.475 28.133 110.475 26.425 C 110.475 24.717 111.855 23.338 113.563 23.338 Z  M 113.563 25.713 C 113.169 25.713 112.85 26.031 112.85 26.425 C 112.85 26.734 113.05 26.995 113.325 27.093 L 113.325 27.613 C 113.325 27.743 113.432 27.85 113.563 27.85 C 113.693 27.85 113.8 27.743 113.8 27.613 L 113.8 27.093 C 114.075 26.995 114.275 26.734 114.275 26.425 C 114.275 26.031 113.956 25.713 113.563 25.713 Z " fill="rgb(161,72,255)"/><g transform="matrix(1,0,0,1,122,19.4)"><text transform="matrix(1,0,0,1,0,8.4)" style="font-family:'Poppins';font-weight:300;font-size:8px;font-style:normal;fill:#000000;stroke:none;">https://www.shualam.com</text></g><g><circle vector-effect="non-scaling-stroke" cx="512" cy="274.99999999999994" r="125" fill="rgb(132,124,145)"/><circle vector-effect="non-scaling-stroke" cx="512" cy="275" r="111.60714285714289" fill="rgb(117,116,134)"/><path d=" M 522.786 234.629 C 508.696 234.629 496.821 242.62 491.093 253.941 C 488.032 251.939 484.528 250.483 480.537 250.483 C 470.503 250.483 462.427 258.033 461.827 267.428 C 451.769 270.889 444.455 279.822 444.455 290.542 C 444.455 304.23 456.181 315.371 470.587 315.371 L 555.494 315.371 C 568.749 315.371 579.545 305.113 579.545 292.519 C 579.545 280.836 570.121 271.52 558.185 270.185 C 558.225 269.585 558.312 269.005 558.312 268.381 C 558.312 249.77 542.374 234.629 522.786 234.629 Z  M 522.786 239.763 C 539.461 239.763 552.908 252.547 552.908 268.381 C 552.908 269.554 552.811 270.727 552.654 271.931 L 552.276 274.809 L 555.491 274.809 C 560.439 274.797 565.189 276.659 568.689 279.982 C 572.189 283.306 574.151 287.817 574.142 292.519 C 574.152 297.221 572.191 301.734 568.692 305.059 C 565.192 308.384 560.443 310.247 555.494 310.237 L 470.587 310.237 C 465.086 310.248 459.806 308.177 455.916 304.481 C 452.026 300.785 449.846 295.769 449.858 290.542 C 449.858 281.468 456.308 273.887 465.056 271.59 L 467.115 271.051 L 467.039 269.033 C 467.028 268.673 467.01 268.494 467.01 268.471 C 466.999 265.059 468.421 261.784 470.961 259.371 C 473.5 256.959 476.947 255.608 480.537 255.617 C 484.296 255.617 487.662 257.06 490.11 259.386 L 493.087 262.225 L 494.565 258.464 C 498.807 247.565 509.795 239.763 522.786 239.763 Z  M 495.789 269.164 C 492.805 269.164 490.386 271.462 490.386 274.298 C 490.386 277.133 492.805 279.432 495.789 279.432 C 498.774 279.432 501.193 277.133 501.193 274.298 C 501.193 271.462 498.774 269.164 495.789 269.164 Z  M 528.211 269.164 C 525.226 269.164 522.807 271.462 522.807 274.298 C 522.807 277.133 525.226 279.432 528.211 279.432 C 531.195 279.432 533.614 277.133 533.614 274.298 C 533.614 271.462 531.195 269.164 528.211 269.164 Z  M 512 287.133 C 495.735 287.133 485.647 298.285 485.647 298.285 C 484.985 298.974 484.768 299.949 485.079 300.834 C 485.39 301.718 486.181 302.373 487.146 302.546 C 488.112 302.719 489.1 302.376 489.721 301.652 C 489.721 301.652 498.342 292.267 512 292.267 C 525.658 292.267 534.279 301.652 534.279 301.652 C 534.9 302.376 535.888 302.719 536.854 302.546 C 537.819 302.373 538.61 301.718 538.921 300.834 C 539.232 299.949 539.015 298.974 538.353 298.285 C 538.353 298.285 528.265 287.133 512 287.133 Z " fill="rgb(255,255,255)"/><path d=" M 578.717 264.767 L 562.775 237.162 C 560.825 233.785 557.642 233.785 555.692 237.162 L 539.753 264.767 C 537.803 268.142 539.401 270.897 543.296 270.897 L 575.174 270.897 C 579.069 270.897 580.659 268.142 578.716 264.767 L 578.717 264.767 Z  M 557.041 244.994 C 557.616 244.376 558.341 244.065 559.233 244.065 C 560.126 244.065 560.85 244.37 561.426 244.981 C 561.989 245.589 562.28 246.357 562.28 247.28 C 562.28 248.066 561.091 253.887 560.695 258.115 L 557.827 258.115 C 557.482 253.887 556.187 248.065 556.187 247.28 C 556.187 246.369 556.478 245.608 557.043 244.994 L 557.041 244.994 Z  M 561.381 265.119 C 560.814 265.689 560.04 266.006 559.235 265.998 C 558.406 265.998 557.686 265.702 557.087 265.119 C 556.502 264.567 556.175 263.794 556.188 262.99 C 556.188 262.159 556.486 261.441 557.087 260.84 C 557.649 260.257 558.426 259.933 559.235 259.943 C 560.064 259.943 560.784 260.239 561.383 260.84 C 561.985 261.442 562.282 262.159 562.282 262.99 C 562.282 263.825 561.984 264.53 561.383 265.119 L 561.381 265.119 Z " fill="rgb(83,215,12)"/><g transform="matrix(0.893,0,0,0.893,321.821,212.5)"><text transform="matrix(1,0,0,1,0,105)" style="font-family:'Poppins';font-weight:900;font-size:100px;font-style:normal;fill:#757486;stroke:none;">4</text></g><g transform="matrix(0.893,0,0,0.893,637,212.5)"><text transform="matrix(1,0,0,1,0,105)" style="font-family:'Poppins';font-weight:900;font-size:100px;font-style:normal;fill:#757486;stroke:none;">4</text></g></g><g transform="matrix(1,0,0,1,190,420)"><text transform="matrix(1,0,0,1,0,31.5)" style="font-family:'Poppins';font-weight:300;font-size:30px;font-style:normal;fill:#757486;stroke:none;">Dang it! something went wrong. Hang tight!</text></g><g><path d="M 440.9 482 L 583.1 482 C 585.252 482 587 483.748 587 485.9 L 587 538.1 C 587 540.252 585.252 542 583.1 542 L 440.9 542 C 438.748 542 437 540.252 437 538.1 L 437 485.9 C 437 483.748 438.748 482 440.9 482 Z" style="stroke:none;fill:#A148FF;stroke-miterlimit:10;"/><g transform="matrix(1,0,0,1,471,499.4)"><text transform="matrix(1,0,0,1,0,18.9)" style="font-family:'Poppins';font-weight:300;font-size:18px;font-style:normal;fill:#ffffff;stroke:none;">GO BACK</text></g></g><line x1="0" y1="50" x2="1024" y2="50" vector-effect="non-scaling-stroke" stroke-width="1" stroke="rgb(232,232,232)" stroke-linejoin="miter" stroke-linecap="square" stroke-miterlimit="3"/></g></svg>