<?xml version="1.0" standalone="no"?><!-- Generator: Gravit.io --><svg xmlns="http://www.w3.org/2000/svg" xmlns:xlink="http://www.w3.org/1999/xlink" style="isolation:isolate" viewBox="0 0 150 150" width="150" height="150"><defs><clipPath id="_clipPath_iAg8vET1Hpvt1TBoXJ9RCfswL3iY0t13"><rect width="150" height="150"/></clipPath></defs><g clip-path="url(#_clipPath_iAg8vET1Hpvt1TBoXJ9RCfswL3iY0t13)"><clipPath id="_clipPath_GhVDIIHcbsxEC4TCG8pJRaDUHtXZJCsH"><rect x="0" y="0" width="150" height="150" transform="matrix(1,0,0,1,0,0)" fill="rgb(255,255,255)"/></clipPath><g clip-path="url(#_clipPath_GhVDIIHcbsxEC4TCG8pJRaDUHtXZJCsH)"><g><circle vector-effect="non-scaling-stroke" cx="75" cy="75" r="75" fill="none"/><g><path d=" M 75.339 107.244 C 75.221 107.244 75.103 107.362 74.866 107.362 C 74.748 107.362 74.63 107.244 74.394 107.244 L 75.339 107.244 Z " fill="rgb(49,56,64)"/><path d=" M 135.339 119.291 C 121.756 137.835 99.669 150 74.866 150 C 50.063 150 28.095 137.953 14.394 119.291 C 25.024 107.953 39.808 101.801 51.855 98.73 C 50.793 107.353 54.906 119.055 55.024 118.701 C 59.512 108.307 74.748 107.362 74.748 107.362 C 74.748 107.362 89.984 108.189 94.591 118.701 C 94.709 118.937 99.197 107.48 98.134 98.858 C 110.299 101.929 124.709 107.953 135.339 119.291 Z " fill="rgb(49,56,64)"/></g><path d=" M 93.528 91.22 L 93.528 91.22 C 93.528 92.756 92.583 100.905 75.339 107.52 L 74.394 107.52 C 57.15 100.905 56.205 92.756 56.205 91.22 L 56.205 91.22 C 56.323 88.149 57.032 85.079 58.331 82.244 C 63.055 87.559 68.725 91.102 74.866 91.102 C 80.89 91.102 86.677 87.677 91.402 82.244 C 92.701 85.079 93.528 88.149 93.528 91.22 Z " fill="rgb(246,198,126)"/><path d=" M 85.158 109.961 L 81.378 117.52 L 68.386 117.52 L 64.606 109.961 C 69.803 107.716 74.882 107.362 74.882 107.362 C 74.882 107.362 80.079 107.716 85.158 109.961 Z " fill="rgb(244,42,65)"/><path d=" M 64.37 149.291 C 67.795 149.764 71.338 150 75 150 C 78.543 150 82.087 149.764 85.63 149.291 L 81.496 117.638 L 68.504 117.638 L 64.37 149.291 Z " fill="rgb(244,42,65)"/><g><path d=" M 93.499 90.945 C 93.499 90.945 94.325 100.394 74.837 107.598 C 74.837 107.598 90.074 108.425 94.68 118.937 C 94.798 119.409 103.656 96.496 93.499 90.945 Z " fill="rgb(49,56,64)"/><path d=" M 56.25 90.945 C 46.211 96.496 54.877 119.291 55.113 118.937 C 59.601 108.543 74.955 107.598 74.955 107.598 C 55.349 100.394 56.25 90.945 56.25 90.945 Z " fill="rgb(49,56,64)"/></g><path d=" M 92.362 84.331 C 87.402 89.646 81.496 93.071 74.882 93.071 C 68.268 93.071 62.362 89.646 57.402 84.331 C 57.638 83.504 57.992 82.677 58.346 81.969 C 63.071 87.284 68.74 90.827 74.882 90.827 C 81.024 90.827 86.693 87.402 91.417 81.969 C 91.772 82.677 92.126 83.504 92.362 84.331 Z " fill="rgb(246,198,126)"/><path d=" M 107.126 66.496 C 104.646 70.63 100.866 73.11 98.031 72.638 C 92.362 83.15 84.095 90.945 74.882 90.945 C 65.669 90.945 57.402 83.031 51.732 72.638 C 48.898 72.992 45.118 70.63 42.638 66.496 C 39.685 61.654 39.567 56.338 42.402 54.567 C 43.11 54.213 43.997 53.976 44.824 54.095 C 46.714 58.937 49.134 61.89 49.134 61.89 C 46.417 46.89 57.52 45.236 55.63 30.827 C 55.63 30.827 62.598 46.299 82.559 35.433 L 81.024 38.386 C 108.898 32.126 99.567 64.961 99.331 65.787 C 102.52 61.772 104.527 57.568 105.709 53.906 C 106.181 53.906 106.772 54.331 107.126 54.567 C 110.197 56.22 110.079 61.654 107.126 66.496 Z " fill="rgb(246,198,126)"/><path d=" M 90.872 15.236 C 93.116 15 96.777 17.008 96.777 17.008 C 86.738 5.551 70.321 12.874 70.321 12.874 C 75.872 8.15 80.832 8.622 80.832 8.622 C 57.328 5.079 53.313 19.134 53.313 19.134 C 52.25 17.48 52.25 15.118 52.368 13.937 C 50.714 16.772 52.486 22.441 52.486 22.441 C 50.832 18.307 45.045 19.016 45.045 19.016 C 50.006 19.842 50.832 22.913 50.832 22.913 C 38.431 27.52 40.557 40.394 40.557 40.394 L 43.51 36.85 C 39.848 50.905 49.219 62.109 49.219 62.109 C 46.502 47.109 57.52 45.236 55.63 30.827 C 55.63 30.827 62.598 46.299 82.559 35.433 L 81.024 38.386 C 109.252 32.008 99.331 65.787 99.331 65.787 C 109.37 53.031 107.88 39.921 107.88 39.921 L 109.061 44.646 C 112.25 23.386 90.872 15.236 90.872 15.236 Z " fill="rgb(49,56,64)"/></g><g><path d=" M 76.959 55.906 C 76.972 56.235 77.012 56.568 77.078 56.901 L 77.86 60.811 C 78.554 64.282 81.87 67 85.41 67 L 91.027 67 C 94.618 67 97.716 64.084 97.933 60.5 L 98.07 58.246 L 100.705 55.611 C 101.015 55.301 101.189 54.881 101.189 54.443 L 101.189 51.717 C 101.189 50.804 100.449 50.064 99.536 50.064 L 80.453 50.064 C 79.276 50.064 77.716 50.587 76.811 51.892 C 75.547 51.419 74.29 51.532 73.217 51.932 C 72.317 50.596 70.736 50.064 69.547 50.064 L 50.464 50.064 C 49.551 50.064 48.811 50.804 48.811 51.717 L 48.811 54.443 C 48.811 54.881 48.985 55.301 49.295 55.611 L 51.93 58.246 L 52.067 60.5 C 52.284 64.084 55.382 67 58.973 67 L 64.59 67 C 68.129 67 71.445 64.282 72.14 60.811 L 72.921 56.901 C 72.987 56.573 73.026 56.246 73.04 55.922 C 75 54.443 76.959 55.906 76.959 55.906 Z  M 52.91 54.409 C 52.679 54.641 52.358 54.773 52.033 54.773 C 51.707 54.773 51.388 54.641 51.157 54.409 C 50.925 54.18 50.793 53.861 50.793 53.534 C 50.793 53.206 50.925 52.888 51.157 52.658 C 51.388 52.427 51.707 52.294 52.033 52.294 C 52.36 52.294 52.679 52.427 52.91 52.658 C 53.14 52.888 53.272 53.208 53.272 53.534 C 53.272 53.859 53.14 54.18 52.91 54.409 Z  M 69.681 56.253 L 68.899 60.163 C 68.516 62.078 66.543 63.695 64.59 63.695 L 58.973 63.695 C 57.129 63.695 55.477 62.14 55.365 60.3 L 55.139 56.564 C 55.087 55.707 55.37 54.904 55.937 54.302 C 56.504 53.7 57.288 53.368 58.147 53.368 L 67.317 53.368 C 68.131 53.368 68.819 53.661 69.254 54.191 C 69.689 54.722 69.841 55.454 69.681 56.253 Z  M 94.861 56.564 L 94.635 60.3 C 94.523 62.141 92.871 63.695 91.027 63.695 L 85.409 63.695 C 83.457 63.695 81.484 62.078 81.1 60.163 L 80.318 56.253 C 80.159 55.455 80.31 54.723 80.745 54.192 C 81.181 53.661 81.869 53.369 82.683 53.369 L 91.853 53.369 C 92.711 53.369 93.496 53.7 94.063 54.302 C 94.63 54.904 94.913 55.707 94.861 56.564 Z  M 98.844 54.409 C 98.612 54.641 98.292 54.773 97.966 54.773 C 97.64 54.773 97.322 54.641 97.09 54.409 C 96.859 54.18 96.727 53.861 96.727 53.534 C 96.727 53.206 96.859 52.888 97.09 52.658 C 97.322 52.427 97.64 52.294 97.966 52.294 C 98.293 52.294 98.612 52.427 98.844 52.658 C 99.073 52.888 99.205 53.208 99.205 53.534 C 99.205 53.859 99.073 54.18 98.844 54.409 Z " fill="rgb(49,56,64)"/></g></g></g></svg>