<?xml version="1.0" standalone="no"?><!-- Generator: Gravit.io --><svg xmlns="http://www.w3.org/2000/svg" xmlns:xlink="http://www.w3.org/1999/xlink" style="isolation:isolate" viewBox="0 0 290.9 280" width="290.9" height="280"><defs><clipPath id="_clipPath_P2Li8WFoT1UxtfP2dDo7BKxRgNQClK4k"><rect width="290.9" height="280"/></clipPath></defs><g clip-path="url(#_clipPath_P2Li8WFoT1UxtfP2dDo7BKxRgNQClK4k)"><path d=" M 145.453 0 C 65.125 0 0.008 65.111 0.008 145.439 C 0.008 206.063 37.097 258.019 89.806 279.86 L 89.806 202.961 C 89.806 200.409 89.925 197.921 90.192 195.511 C 90.215 195.352 90.235 195.187 90.252 195.037 C 90.298 194.599 90.332 194.165 90.421 193.731 C 90.498 193.021 90.603 192.329 90.718 191.631 C 90.884 190.734 91.051 189.836 91.253 188.963 C 91.437 188.104 91.664 187.245 91.889 186.386 C 91.889 186.369 91.889 186.347 91.906 186.326 C 92.129 185.492 92.374 184.651 92.643 183.831 C 92.831 183.266 93.009 182.669 93.234 182.122 C 93.295 181.979 93.337 181.855 93.399 181.715 C 93.557 181.263 93.723 180.812 93.909 180.392 C 94.132 179.813 94.359 179.264 94.617 178.717 C 94.768 178.366 94.925 178.034 95.092 177.71 C 95.108 177.609 95.154 177.525 95.214 177.446 L 95.232 177.43 C 95.232 177.41 95.253 177.368 95.276 177.341 C 95.419 177.021 95.582 176.693 95.745 176.36 C 95.765 176.342 95.765 176.304 95.784 176.286 C 95.844 176.176 95.906 176.061 95.951 175.939 C 95.968 175.896 95.984 175.877 96.007 175.834 C 96.052 175.755 96.091 175.65 96.151 175.554 C 96.174 175.51 96.213 175.445 96.257 175.386 C 96.296 175.326 96.319 175.238 96.376 175.186 C 96.565 174.809 96.765 174.45 96.967 174.099 C 97.05 173.954 97.134 173.814 97.213 173.674 C 97.273 173.546 97.335 173.445 97.396 173.362 C 97.562 173.118 97.704 172.875 97.87 172.626 C 97.93 172.486 98.01 172.367 98.088 172.236 C 98.233 172.04 98.352 171.829 98.501 171.627 C 98.501 171.591 98.518 171.57 98.563 171.522 C 98.789 171.179 99.009 170.834 99.255 170.513 C 99.644 169.936 100.052 169.366 100.482 168.813 C 100.684 168.542 100.884 168.278 101.112 168.016 C 101.219 167.876 101.314 167.731 101.438 167.586 C 101.621 167.345 101.826 167.122 102.032 166.894 C 102.295 166.548 102.586 166.219 102.869 165.891 C 103.009 165.752 103.133 165.589 103.255 165.449 C 103.703 164.948 104.155 164.466 104.627 163.993 C 115.031 153.379 128.563 148.077 145.268 148.077 C 161.653 148.077 175.218 153.379 185.879 163.993 C 195.792 173.793 200.726 186.799 200.726 202.961 L 200.726 280 C 253.638 258.255 290.892 206.189 290.892 145.439 C 290.892 65.111 225.77 0 145.453 0 Z  M 145.47 166.894 C 126.508 166.894 111.135 182.268 111.135 201.225 C 111.135 203.469 111.358 205.677 111.77 207.799 C 112.888 213.573 115.443 218.823 119.053 223.171 C 125.364 230.739 134.861 235.564 145.47 235.564 C 156.084 235.564 165.575 230.739 171.886 223.171 C 175.086 219.316 177.478 214.74 178.739 209.745 C 179.433 207 179.802 204.17 179.802 201.225 C 179.802 182.268 164.428 166.894 145.47 166.894 Z " fill-rule="evenodd" fill="rgb(244,42,65)"/></g></svg>