<?xml version="1.0" standalone="no"?><!-- Generator: Gravit.io --><svg xmlns="http://www.w3.org/2000/svg" xmlns:xlink="http://www.w3.org/1999/xlink" style="isolation:isolate" viewBox="0 0 500 231" width="500" height="231"><defs><clipPath id="_clipPath_wZ8LelTvEwsh2EWI505s7J3lRnenAOKQ"><rect width="500" height="231"/></clipPath></defs><g clip-path="url(#_clipPath_wZ8LelTvEwsh2EWI505s7J3lRnenAOKQ)"><g><clipPath id="_clipPath_gm6ZzNkny2y5hrUxwDjPBb92kpQOMKxc"><path d="M 11.55 0 L 488.95 0 C 495.325 0 500.5 5.175 500.5 11.55 L 500.5 219.45 C 500.5 225.825 495.325 231 488.95 231 L 11.55 231 C 5.175 231 0 225.825 0 219.45 L 0 11.55 C 0 5.175 5.175 0 11.55 0 Z" style="stroke:none;fill:#FFFFFF;stroke-miterlimit:10;"/></clipPath><g clip-path="url(#_clipPath_gm6ZzNkny2y5hrUxwDjPBb92kpQOMKxc)"><g><g transform="matrix(3.85,0,0,3.85,399.63,334.95)"><text transform="matrix(1,0,0,1,0.87,30.12)" style="font-family:'Oleo Script Swash Caps';font-weight:700;font-size:30px;font-style:normal;fill:#FFFFFF;stroke:none;">Alam</text></g><g><circle vector-effect="non-scaling-stroke" cx="691.4600000000003" cy="434.28962500000034" r="11.549999999999955" fill="rgb(255,255,255)" stroke-width="0.1" stroke="rgb(244,42,65)" stroke-linejoin="miter" stroke-linecap="square" stroke-miterlimit="3"/><g transform="matrix(3.85,0,0,3.85,685.3,421.537)"><text transform="matrix(1,0,0,1,0,4.585)" style="font-family:'Noto Sans Bengali';font-weight:700;font-size:5px;font-style:normal;fill:#f42a41;stroke:none;">১</text></g></g></g></g><g><g><circle vector-effect="non-scaling-stroke" cx="425.5499999999999" cy="133.753125" r="11.550000000000011" fill="rgb(255,255,255)" stroke-width="1" stroke="rgb(244,42,65)" stroke-linejoin="miter" stroke-linecap="square" stroke-miterlimit="3"/><g transform="matrix(3.85,0,0,3.85,419.665,121)"><text transform="matrix(1,0,0,1,0,4.585)" style="font-family:'Noto Sans Bengali';font-weight:700;font-size:5px;font-style:normal;fill:#f42a41;stroke:none;">১</text></g></g><g transform="matrix(3.85,0,0,3.85,79,37.263)"><text transform="matrix(1,0,0,1,2.37,31.62)" style="font-family:'Oleo Script Swash Caps';font-weight:700;font-size:30px;font-style:normal;fill:#ffffff;stroke:#F42A41;stroke-width:1;">A</text></g><g transform="matrix(3.85,0,0,3.85,191,37.263)"><text transform="matrix(1,0,0,1,1.5,31.62)" style="font-family:'Oleo Script Swash Caps';font-weight:700;font-size:30px;font-style:normal;fill:#ffffff;stroke:#F42A41;stroke-width:1;">l</text></g><g transform="matrix(3.85,0,0,3.85,241.4,37.263)"><text transform="matrix(1,0,0,1,1.5,31.62)" style="font-family:'Oleo Script Swash Caps';font-weight:700;font-size:30px;font-style:normal;fill:#ffffff;stroke:#F42A41;stroke-width:1;">a</text></g><g transform="matrix(3.85,0,0,3.85,318.75,37.263)"><text transform="matrix(1,0,0,1,1.5,31.62)" style="font-family:'Oleo Script Swash Caps';font-weight:700;font-size:30px;font-style:normal;fill:#ffffff;stroke:#F42A41;stroke-width:1;">m</text></g></g></g></g></svg>